<svg width="13" height="15" viewBox="0 0 13 15" fill="none" xmlns="http://www.w3.org/2000/svg">
<path d="M10.7056 13.9412C11.0489 13.9412 11.378 13.8048 11.6207 13.5621C11.8634 13.3194 11.9998 12.9903 11.9998 12.6471C11.9998 12.3038 11.8634 11.9747 11.6207 11.732C11.378 11.4893 11.0489 11.3529 10.7056 11.3529C10.3624 11.3529 10.0333 11.4893 9.79056 11.732C9.54787 11.9747 9.41152 12.3038 9.41152 12.6471C9.41152 12.9903 9.54787 13.3194 9.79056 13.5621C10.0333 13.8048 10.3624 13.9412 10.7056 13.9412ZM2.29387 3.58824C2.63709 3.58824 2.96626 3.45189 3.20895 3.2092C3.45165 2.9665 3.58799 2.63734 3.58799 2.29412C3.58799 1.9509 3.45165 1.62173 3.20895 1.37904C2.96626 1.13634 2.63709 1 2.29387 1C1.95065 1 1.62149 1.13634 1.37879 1.37904C1.1361 1.62173 0.999756 1.9509 0.999756 2.29412C0.999756 2.63734 1.1361 2.9665 1.37879 3.2092C1.62149 3.45189 1.95065 3.58824 2.29387 3.58824ZM2.29387 13.9412C2.63709 13.9412 2.96626 13.8048 3.20895 13.5621C3.45165 13.3194 3.58799 12.9903 3.58799 12.6471C3.58799 12.3038 3.45165 11.9747 3.20895 11.732C2.96626 11.4893 2.63709 11.3529 2.29387 11.3529C1.95065 11.3529 1.62149 11.4893 1.37879 11.732C1.1361 11.9747 0.999756 12.3038 0.999756 12.6471C0.999756 12.9903 1.1361 13.3194 1.37879 13.5621C1.62149 13.8048 1.95065 13.9412 2.29387 13.9412Z" stroke="#F1F2F6" stroke-width="1.5" stroke-linejoin="round"/>
<path d="M2.2941 3.5874V11.3521M6.49998 2.94034H9.41175C9.75497 2.94034 10.0841 3.07668 10.3268 3.31938C10.5695 3.56207 10.7059 3.89123 10.7059 4.23446V11.3521" stroke="#F1F2F6" stroke-width="1.5" stroke-linecap="round" stroke-linejoin="round"/>
<path d="M8.44093 4.88235L6.49976 2.94118L8.44093 1" stroke="#F1F2F6" stroke-width="1.5" stroke-linecap="round" stroke-linejoin="round"/>
</svg>
