<svg width="124" height="142" viewBox="0 0 124 142" fill="none" xmlns="http://www.w3.org/2000/svg">
<g filter="url(#filter0_d_1_11)">
<rect x="28" y="106" width="86" height="68" rx="15" transform="rotate(-90 28 106)" fill="white"/>
</g>
<path d="M57.6457 54.755H57.6457V54.7624V56.9981C57.6457 58.0122 57.3812 58.5236 57.1171 58.7878C56.8529 59.0519 56.3416 59.3164 55.3274 59.3164H53.0917C52.0775 59.3164 51.5661 59.0519 51.302 58.7878C51.0379 58.5236 50.7734 58.0122 50.7734 56.9981V54.7624C50.7734 53.7482 51.0378 53.2377 51.3022 52.9739C51.5672 52.7096 52.0815 52.4441 53.1035 52.4441H55.3391C56.3539 52.4441 56.8641 52.7088 57.1261 52.9714C57.3875 53.2334 57.6503 53.7422 57.6457 54.755Z" fill="white" stroke="#3354F4" stroke-width="3.2"/>
<path d="M66.5526 52.4441H68.7882C69.8024 52.4441 70.3138 52.7085 70.578 52.9727C70.8421 53.2368 71.1065 53.7482 71.1065 54.7624V56.9981C71.1065 58.0122 70.8421 58.5236 70.578 58.7878C70.3138 59.0519 69.8024 59.3164 68.7882 59.3164H66.5526C65.5384 59.3164 65.027 59.0519 64.7629 58.7878C64.4987 58.5236 64.2343 58.0122 64.2343 56.9981V54.7624C64.2343 53.7482 64.4987 53.2368 64.7629 52.9727C65.027 52.7085 65.5384 52.4441 66.5526 52.4441Z" fill="white" stroke="#3354F4" stroke-width="3.2"/>
<path d="M66.5526 65.8923H68.7882C69.8024 65.8923 70.3138 66.1567 70.578 66.4209C70.8421 66.685 71.1065 67.1964 71.1065 68.2106V70.4462C71.1065 71.4604 70.8421 71.9718 70.578 72.2359C70.3138 72.5001 69.8024 72.7645 68.7882 72.7645H66.5526C65.5384 72.7645 65.027 72.5001 64.7629 72.2359C64.4987 71.9718 64.2343 71.4604 64.2343 70.4462V68.2106C64.2343 67.1964 64.4987 66.685 64.7629 66.4209C65.027 66.1567 65.5384 65.8923 66.5526 65.8923Z" fill="white" stroke="#3354F4" stroke-width="3.2"/>
<path d="M57.6457 68.215L57.6457 68.215V68.2223V70.458C57.6457 71.4722 57.3812 71.9836 57.1171 72.2477C56.8529 72.5118 56.3416 72.7763 55.3274 72.7763H53.0917C52.0775 72.7763 51.5671 72.5119 51.3033 72.2475C51.0389 71.9825 50.7734 71.4682 50.7734 70.4462V68.2106C50.7734 67.1964 51.0378 66.6859 51.3022 66.4221C51.5672 66.1577 52.0815 65.8923 53.1035 65.8923H55.3391C56.3539 65.8923 56.8632 66.1569 57.1248 66.4198C57.3865 66.6826 57.6503 67.1944 57.6457 68.215Z" fill="white" stroke="#3354F4" stroke-width="3.2"/>
<path d="M28 40.48H30.65C32.3069 40.48 33.65 41.8231 33.65 43.48V79.33C33.65 80.9868 32.3069 82.33 30.65 82.33H28V40.48Z" fill="#3354F4"/>
<defs>
<filter id="filter0_d_1_11" x="0" y="0" width="124" height="142" filterUnits="userSpaceOnUse" color-interpolation-filters="sRGB">
<feFlood flood-opacity="0" result="BackgroundImageFix"/>
<feColorMatrix in="SourceAlpha" type="matrix" values="0 0 0 0 0 0 0 0 0 0 0 0 0 0 0 0 0 0 127 0" result="hardAlpha"/>
<feOffset dy="8"/>
<feGaussianBlur stdDeviation="14"/>
<feColorMatrix type="matrix" values="0 0 0 0 0.283212 0 0 0 0 0.350184 0 0 0 0 0.400085 0 0 0 0.1006 0"/>
<feBlend mode="normal" in2="BackgroundImageFix" result="effect1_dropShadow_1_11"/>
<feBlend mode="normal" in="SourceGraphic" in2="effect1_dropShadow_1_11" result="shape"/>
</filter>
</defs>
</svg>
