<svg width="15" height="16" viewBox="0 0 15 16" fill="none" xmlns="http://www.w3.org/2000/svg">
<path d="M4.64559 1.77153C4.39916 1.77153 4.16282 1.86473 3.98857 2.03064C3.81432 2.19655 3.71642 2.42158 3.71642 2.65621C3.71642 2.89084 3.81432 3.11586 3.98857 3.28177C4.16282 3.44768 4.39916 3.54089 4.64559 3.54089C4.89202 3.54089 5.12836 3.44768 5.30261 3.28177C5.47686 3.11586 5.57476 2.89084 5.57476 2.65621C5.57476 2.42158 5.47686 2.19655 5.30261 2.03064C5.12836 1.86473 4.89202 1.77153 4.64559 1.77153ZM2.01605 1.77153C2.20802 1.25352 2.56401 0.804956 3.03497 0.487671C3.50593 0.170386 4.06866 0 4.64559 0C5.22252 0 5.78525 0.170386 6.25621 0.487671C6.72716 0.804956 7.08316 1.25352 7.27513 1.77153H13.9373C14.1837 1.77153 14.42 1.86473 14.5943 2.03064C14.7685 2.19655 14.8664 2.42158 14.8664 2.65621C14.8664 2.89084 14.7685 3.11586 14.5943 3.28177C14.42 3.44768 14.1837 3.54089 13.9373 3.54089H7.27513C7.08316 4.0589 6.72716 4.50746 6.25621 4.82474C5.78525 5.14203 5.22252 5.31241 4.64559 5.31241C4.06866 5.31241 3.50593 5.14203 3.03497 4.82474C2.56401 4.50746 2.20802 4.0589 2.01605 3.54089H0.928923C0.682492 3.54089 0.446155 3.44768 0.271903 3.28177C0.0976501 3.11586 -0.000244141 2.89084 -0.000244141 2.65621C-0.000244141 2.42158 0.0976501 2.19655 0.271903 2.03064C0.446155 1.86473 0.682492 1.77153 0.928923 1.77153H2.01605ZM10.2206 7.07961C9.97416 7.07961 9.73782 7.17281 9.56357 7.33872C9.38932 7.50463 9.29142 7.72965 9.29142 7.96429C9.29142 8.19892 9.38932 8.42394 9.56357 8.58985C9.73782 8.75576 9.97416 8.84897 10.2206 8.84897C10.467 8.84897 10.7034 8.75576 10.8776 8.58985C11.0519 8.42394 11.1498 8.19892 11.1498 7.96429C11.1498 7.72965 11.0519 7.50463 10.8776 7.33872C10.7034 7.17281 10.467 7.07961 10.2206 7.07961ZM7.59105 7.07961C7.78302 6.5616 8.13901 6.11303 8.60997 5.79575C9.08093 5.47846 9.64366 5.30808 10.2206 5.30808C10.7975 5.30808 11.3602 5.47846 11.8312 5.79575C12.3022 6.11303 12.6582 6.5616 12.8501 7.07961H13.9373C14.1837 7.07961 14.42 7.17281 14.5943 7.33872C14.7685 7.50463 14.8664 7.72965 14.8664 7.96429C14.8664 8.19892 14.7685 8.42394 14.5943 8.58985C14.42 8.75576 14.1837 8.84897 13.9373 8.84897H12.8501C12.6582 9.36697 12.3022 9.81554 11.8312 10.1328C11.3602 10.4501 10.7975 10.6205 10.2206 10.6205C9.64366 10.6205 9.08093 10.4501 8.60997 10.1328C8.13901 9.81554 7.78302 9.36697 7.59105 8.84897H0.928923C0.682492 8.84897 0.446155 8.75576 0.271903 8.58985C0.0976501 8.42394 -0.000244141 8.19892 -0.000244141 7.96429C-0.000244141 7.72965 0.0976501 7.50463 0.271903 7.33872C0.446155 7.17281 0.682492 7.07961 0.928923 7.07961H7.59105ZM4.64559 12.3877C4.39916 12.3877 4.16282 12.4809 3.98857 12.6468C3.81432 12.8127 3.71642 13.0377 3.71642 13.2724C3.71642 13.507 3.81432 13.732 3.98857 13.8979C4.16282 14.0638 4.39916 14.157 4.64559 14.157C4.89202 14.157 5.12836 14.0638 5.30261 13.8979C5.47686 13.732 5.57476 13.507 5.57476 13.2724C5.57476 13.0377 5.47686 12.8127 5.30261 12.6468C5.12836 12.4809 4.89202 12.3877 4.64559 12.3877ZM2.01605 12.3877C2.20802 11.8697 2.56401 11.4211 3.03497 11.1038C3.50593 10.7865 4.06866 10.6162 4.64559 10.6162C5.22252 10.6162 5.78525 10.7865 6.25621 11.1038C6.72716 11.4211 7.08316 11.8697 7.27513 12.3877H13.9373C14.1837 12.3877 14.42 12.4809 14.5943 12.6468C14.7685 12.8127 14.8664 13.0377 14.8664 13.2724C14.8664 13.507 14.7685 13.732 14.5943 13.8979C14.42 14.0638 14.1837 14.157 13.9373 14.157H7.27513C7.08316 14.6751 6.72716 15.1236 6.25621 15.4409C5.78525 15.7582 5.22252 15.9286 4.64559 15.9286C4.06866 15.9286 3.50593 15.7582 3.03497 15.4409C2.56401 15.1236 2.20802 14.6751 2.01605 14.157H0.928923C0.682492 14.157 0.446155 14.0638 0.271903 13.8979C0.0976501 13.732 -0.000244141 13.507 -0.000244141 13.2724C-0.000244141 13.0377 0.0976501 12.8127 0.271903 12.6468C0.446155 12.4809 0.682492 12.3877 0.928923 12.3877H2.01605Z" fill="white"/>
<path d="M4.64559 1.77153C4.39916 1.77153 4.16282 1.86473 3.98857 2.03064C3.81432 2.19655 3.71642 2.42158 3.71642 2.65621C3.71642 2.89084 3.81432 3.11586 3.98857 3.28177C4.16282 3.44768 4.39916 3.54089 4.64559 3.54089C4.89202 3.54089 5.12836 3.44768 5.30261 3.28177C5.47686 3.11586 5.57476 2.89084 5.57476 2.65621C5.57476 2.42158 5.47686 2.19655 5.30261 2.03064C5.12836 1.86473 4.89202 1.77153 4.64559 1.77153ZM2.01605 1.77153C2.20802 1.25352 2.56401 0.804956 3.03497 0.487671C3.50593 0.170386 4.06866 0 4.64559 0C5.22252 0 5.78525 0.170386 6.25621 0.487671C6.72716 0.804956 7.08316 1.25352 7.27513 1.77153H13.9373C14.1837 1.77153 14.42 1.86473 14.5943 2.03064C14.7685 2.19655 14.8664 2.42158 14.8664 2.65621C14.8664 2.89084 14.7685 3.11586 14.5943 3.28177C14.42 3.44768 14.1837 3.54089 13.9373 3.54089H7.27513C7.08316 4.0589 6.72716 4.50746 6.25621 4.82474C5.78525 5.14203 5.22252 5.31241 4.64559 5.31241C4.06866 5.31241 3.50593 5.14203 3.03497 4.82474C2.56401 4.50746 2.20802 4.0589 2.01605 3.54089H0.928923C0.682492 3.54089 0.446155 3.44768 0.271903 3.28177C0.0976501 3.11586 -0.000244141 2.89084 -0.000244141 2.65621C-0.000244141 2.42158 0.0976501 2.19655 0.271903 2.03064C0.446155 1.86473 0.682492 1.77153 0.928923 1.77153H2.01605ZM10.2206 7.07961C9.97416 7.07961 9.73782 7.17281 9.56357 7.33872C9.38932 7.50463 9.29142 7.72965 9.29142 7.96429C9.29142 8.19892 9.38932 8.42394 9.56357 8.58985C9.73782 8.75576 9.97416 8.84897 10.2206 8.84897C10.467 8.84897 10.7034 8.75576 10.8776 8.58985C11.0519 8.42394 11.1498 8.19892 11.1498 7.96429C11.1498 7.72965 11.0519 7.50463 10.8776 7.33872C10.7034 7.17281 10.467 7.07961 10.2206 7.07961ZM7.59105 7.07961C7.78302 6.5616 8.13901 6.11303 8.60997 5.79575C9.08093 5.47846 9.64366 5.30808 10.2206 5.30808C10.7975 5.30808 11.3602 5.47846 11.8312 5.79575C12.3022 6.11303 12.6582 6.5616 12.8501 7.07961H13.9373C14.1837 7.07961 14.42 7.17281 14.5943 7.33872C14.7685 7.50463 14.8664 7.72965 14.8664 7.96429C14.8664 8.19892 14.7685 8.42394 14.5943 8.58985C14.42 8.75576 14.1837 8.84897 13.9373 8.84897H12.8501C12.6582 9.36697 12.3022 9.81554 11.8312 10.1328C11.3602 10.4501 10.7975 10.6205 10.2206 10.6205C9.64366 10.6205 9.08093 10.4501 8.60997 10.1328C8.13901 9.81554 7.78302 9.36697 7.59105 8.84897H0.928923C0.682492 8.84897 0.446155 8.75576 0.271903 8.58985C0.0976501 8.42394 -0.000244141 8.19892 -0.000244141 7.96429C-0.000244141 7.72965 0.0976501 7.50463 0.271903 7.33872C0.446155 7.17281 0.682492 7.07961 0.928923 7.07961H7.59105ZM4.64559 12.3877C4.39916 12.3877 4.16282 12.4809 3.98857 12.6468C3.81432 12.8127 3.71642 13.0377 3.71642 13.2724C3.71642 13.507 3.81432 13.732 3.98857 13.8979C4.16282 14.0638 4.39916 14.157 4.64559 14.157C4.89202 14.157 5.12836 14.0638 5.30261 13.8979C5.47686 13.732 5.57476 13.507 5.57476 13.2724C5.57476 13.0377 5.47686 12.8127 5.30261 12.6468C5.12836 12.4809 4.89202 12.3877 4.64559 12.3877ZM2.01605 12.3877C2.20802 11.8697 2.56401 11.4211 3.03497 11.1038C3.50593 10.7865 4.06866 10.6162 4.64559 10.6162C5.22252 10.6162 5.78525 10.7865 6.25621 11.1038C6.72716 11.4211 7.08316 11.8697 7.27513 12.3877H13.9373C14.1837 12.3877 14.42 12.4809 14.5943 12.6468C14.7685 12.8127 14.8664 13.0377 14.8664 13.2724C14.8664 13.507 14.7685 13.732 14.5943 13.8979C14.42 14.0638 14.1837 14.157 13.9373 14.157H7.27513C7.08316 14.6751 6.72716 15.1236 6.25621 15.4409C5.78525 15.7582 5.22252 15.9286 4.64559 15.9286C4.06866 15.9286 3.50593 15.7582 3.03497 15.4409C2.56401 15.1236 2.20802 14.6751 2.01605 14.157H0.928923C0.682492 14.157 0.446155 14.0638 0.271903 13.8979C0.0976501 13.732 -0.000244141 13.507 -0.000244141 13.2724C-0.000244141 13.0377 0.0976501 12.8127 0.271903 12.6468C0.446155 12.4809 0.682492 12.3877 0.928923 12.3877H2.01605Z" stroke="white"/>
</svg>
