<svg width="25" height="25" viewBox="0 0 25 25" fill="none" xmlns="http://www.w3.org/2000/svg">
<path d="M3.72737 0.613592L12.4995 9.38569L21.2261 0.659043C21.4189 0.453871 21.6511 0.28974 21.9088 0.176492C22.1666 0.0632451 22.4445 0.00321419 22.726 0C23.3287 0 23.9068 0.23943 24.333 0.665618C24.7591 1.09181 24.9986 1.66984 24.9986 2.27256C25.0039 2.55118 24.9522 2.82795 24.8467 3.08587C24.7411 3.3438 24.584 3.57744 24.385 3.77246L15.5447 12.4991L24.385 21.3394C24.7595 21.7058 24.9792 22.202 24.9986 22.7256C24.9986 23.3284 24.7591 23.9064 24.333 24.3326C23.9068 24.7588 23.3287 24.9982 22.726 24.9982C22.4364 25.0102 22.1474 24.9619 21.8775 24.8562C21.6075 24.7506 21.3625 24.59 21.1579 24.3846L12.4995 15.6125L3.7501 24.3619C3.55808 24.5602 3.32869 24.7186 3.07515 24.8278C2.82162 24.937 2.54897 24.9949 2.27293 24.9982C1.67021 24.9982 1.09218 24.7588 0.665988 24.3326C0.2398 23.9064 0.000369761 23.3284 0.000369761 22.7256C-0.00492871 22.447 0.0467651 22.1703 0.152279 21.9123C0.257793 21.6544 0.414902 21.4208 0.613962 21.2257L9.45424 12.4991L0.613962 3.65883C0.239409 3.2924 0.0197766 2.79619 0.000369761 2.27256C0.000369761 1.66984 0.2398 1.09181 0.665988 0.665618C1.09218 0.23943 1.67021 0 2.27293 0C2.81835 0.00681769 3.34104 0.227256 3.72737 0.613592Z" fill="#3354F4"/>
</svg>
