<svg width="20" height="12" viewBox="0 0 20 12" fill="none" xmlns="http://www.w3.org/2000/svg">
<path d="M17.4899 1.32171L10.1835 8.61035L9.83034 8.96261L9.47722 8.61035L2.16741 1.31837C2.16739 1.31836 2.16738 1.31834 2.16736 1.31832C1.98429 1.13578 1.73579 1.03302 1.47642 1.03302C1.21709 1.03302 0.968607 1.13576 0.785544 1.31827L17.4899 1.32171ZM17.4899 1.32171C17.6738 1.146 17.9194 1.04863 18.1746 1.05084C18.4311 1.05307 18.6762 1.1557 18.8572 1.33626C19.0382 1.51678 19.1406 1.76073 19.1428 2.0155C19.145 2.26897 19.0479 2.51344 18.8718 2.69675L10.5213 11.0269C10.5213 11.0269 10.5213 11.0269 10.5213 11.0269C10.3382 11.2094 10.0897 11.3122 9.83034 11.3122C9.57098 11.3122 9.32248 11.2094 9.13941 11.0269C9.13939 11.0269 9.13937 11.0269 9.13936 11.0269L0.785544 2.69342L17.4899 1.32171ZM0.5 2.00584C0.5 2.26346 0.602548 2.51079 0.785491 2.69337L0.5 2.00584ZM0.5 2.00584C0.5 1.74825 0.602528 1.50095 0.785437 1.31837L0.5 2.00584Z" fill="#3354F4" stroke="white"/>
</svg>
