<svg width="20" height="11" viewBox="0 0 20 11" fill="none" xmlns="http://www.w3.org/2000/svg">
<path d="M9.83034 8.22976L9.48168 7.89056L2.17188 0.779073C2.17186 0.779056 2.17184 0.779038 2.17182 0.779021C1.98965 0.601872 1.73976 0.5 1.47642 0.5C1.21311 0.5 0.96325 0.601852 0.781082 0.778968L9.83034 8.22976ZM9.83034 8.22976L10.179 7.89056M9.83034 8.22976L10.179 7.89056M10.179 7.89056L17.4854 0.782371M10.179 7.89056L17.4854 0.782371M17.4854 0.782371C17.6685 0.611725 17.9157 0.515193 18.1747 0.517383C18.4351 0.519585 18.6816 0.621298 18.8617 0.796521C19.0413 0.971307 19.1407 1.20484 19.1428 1.446C19.145 1.68591 19.0508 1.91976 18.8762 2.09707L10.5258 10.2209C10.5258 10.2209 10.5258 10.221 10.5257 10.221C10.3436 10.3981 10.0937 10.5 9.83034 10.5C9.56698 10.5 9.31707 10.3981 9.13489 10.2209L0.781082 2.09377C0.781064 2.09375 0.781046 2.09373 0.781028 2.09371C0.599409 1.91694 0.5 1.68021 0.5 1.43637C0.5 1.19255 0.59939 0.95584 0.780974 0.779073L17.4854 0.782371Z" fill="#3354F4" stroke="white"/>
</svg>
