<svg width="20" height="12" viewBox="0 0 20 12" fill="none" xmlns="http://www.w3.org/2000/svg">
<path d="M17.4899 10.4905L10.1835 3.20184L9.83034 2.84958L9.47722 3.20184L2.16741 10.4938C2.16739 10.4938 2.16738 10.4939 2.16736 10.4939C1.98429 10.6764 1.73579 10.7792 1.47642 10.7792C1.21709 10.7792 0.968607 10.6764 0.785544 10.4939L17.4899 10.4905ZM17.4899 10.4905C17.6738 10.6662 17.9194 10.7636 18.1746 10.7614C18.4311 10.7591 18.6762 10.6565 18.8572 10.4759C19.0382 10.2954 19.1406 10.0515 19.1428 9.7967C19.145 9.54322 19.0479 9.29875 18.8718 9.11544L10.5213 0.785339C10.5213 0.785322 10.5213 0.785304 10.5213 0.785287C10.3382 0.60275 10.0897 0.499987 9.83034 0.499987C9.57098 0.499987 9.32248 0.602749 9.13941 0.785287C9.13939 0.785305 9.13937 0.785322 9.13936 0.78534L0.785544 9.11877L17.4899 10.4905ZM0.5 9.80635C0.5 9.54873 0.602548 9.30141 0.785491 9.11883L0.5 9.80635ZM0.5 9.80635C0.5 10.0639 0.602528 10.3112 0.785437 10.4938L0.5 9.80635Z" fill="#252C58" stroke="white"/>
</svg>
