<svg width="21" height="21" viewBox="0 0 21 21" fill="none" xmlns="http://www.w3.org/2000/svg">
<path d="M14.0562 3.11482V3.66183L14.6009 3.71226C15.6703 3.81128 16.3991 4.17117 16.8816 4.68341C17.3358 5.16552 17.6226 5.8367 17.7234 6.69732L3.27652 6.69732C3.37732 5.8367 3.66413 5.16552 4.11826 4.68341C4.60078 4.17117 5.32964 3.81128 6.39903 3.71226L6.94371 3.66183V3.11482V1.74982C6.94371 1.73926 6.94782 1.72517 6.96156 1.71142C6.97531 1.69768 6.9894 1.69357 6.99996 1.69357C7.01051 1.69357 7.02461 1.69768 7.03835 1.71142C7.05209 1.72517 7.05621 1.73927 7.05621 1.74982V3.06232V3.66232H7.65621L13.3437 3.66232H13.9437V3.06232V1.74982C13.9437 1.73926 13.9478 1.72517 13.9616 1.71142C13.9753 1.69768 13.9894 1.69357 14 1.69357C14.0105 1.69357 14.0246 1.69768 14.0383 1.71142C14.0521 1.72517 14.0562 1.73926 14.0562 1.74982V3.11482Z" fill="#3354F4" stroke="#3354F4" stroke-width="1.2"/>
<path d="M8.43357 16.4027L8.46587 16.3769L8.49432 16.3469C8.75023 16.0767 8.9125 15.7041 8.9125 15.313C8.9125 14.9218 8.75023 14.5492 8.49432 14.2791L8.46587 14.249L8.43357 14.2232L8.30232 14.1182L8.28199 14.1019L8.26032 14.0875C8.18094 14.0346 8.09436 13.9884 8.00061 13.9532C7.91358 13.9133 7.82028 13.8828 7.72136 13.8654C7.43912 13.8107 7.14586 13.8368 6.87544 13.9535C6.68126 14.0305 6.53629 14.1365 6.41487 14.2457L6.39711 14.2617L6.38068 14.2791C6.12477 14.5492 5.9625 14.9218 5.9625 15.313C5.9625 15.7041 6.12477 16.0767 6.38068 16.3469L6.39711 16.3642L6.41487 16.3802C6.53761 16.4907 6.68442 16.5977 6.88181 16.675C7.04643 16.7425 7.23583 16.788 7.4375 16.788C7.53897 16.788 7.63108 16.7743 7.68091 16.7669C7.68706 16.7659 7.69256 16.7651 7.69735 16.7644L7.69738 16.7646L7.71114 16.7623C7.81386 16.7452 7.91059 16.714 8.00061 16.6727C8.0905 16.639 8.17379 16.5952 8.25047 16.545C8.31023 16.5075 8.35758 16.4677 8.38172 16.4472C8.39458 16.4362 8.4115 16.4215 8.41782 16.4161C8.42722 16.4079 8.43146 16.4044 8.43357 16.4027ZM8.4714 13.3073L8.48317 13.2961L8.49432 13.2844C8.75023 13.0142 8.9125 12.6416 8.9125 12.2505C8.9125 11.8593 8.75023 11.4867 8.49432 11.2166L8.48875 11.2107L8.48301 11.205C8.34243 11.0644 8.17694 10.9608 7.99667 10.8899C7.44522 10.6571 6.80468 10.7923 6.39199 11.205L6.38625 11.2107L6.38068 11.2166C6.12477 11.4867 5.9625 11.8593 5.9625 12.2505C5.9625 12.6416 6.12477 13.0142 6.38068 13.2844L6.39183 13.2961L6.4036 13.3073C6.67373 13.5632 7.04636 13.7255 7.4375 13.7255C7.82865 13.7255 8.20127 13.5632 8.4714 13.3073ZM11.5339 16.3698L11.5457 16.3586L11.5568 16.3469C11.8127 16.0767 11.975 15.7041 11.975 15.313C11.975 14.9218 11.8127 14.5492 11.5568 14.2791L11.5512 14.2732L11.5455 14.2675C11.2539 13.9758 10.8627 13.8489 10.5 13.8489C10.1373 13.8489 9.7461 13.9758 9.45449 14.2675L9.44875 14.2732L9.44318 14.2791C9.18727 14.5492 9.025 14.9218 9.025 15.313C9.025 15.7041 9.18727 16.0767 9.44318 16.3469L9.45433 16.3586L9.4661 16.3698C9.73623 16.6257 10.1089 16.788 10.5 16.788C10.8911 16.788 11.2638 16.6257 11.5339 16.3698ZM11.4961 13.3402L11.5284 13.3144L11.5568 13.2844C11.8127 13.0142 11.975 12.6416 11.975 12.2505C11.975 11.8593 11.8127 11.4867 11.5568 11.2166L11.5512 11.2107L11.5455 11.205C11.1328 10.7923 10.4923 10.6571 9.94083 10.8899C9.76056 10.9608 9.59507 11.0644 9.45449 11.205L9.44875 11.2107L9.44318 11.2166C9.18727 11.4867 9.025 11.8593 9.025 12.2505C9.025 12.6416 9.18727 13.0142 9.44318 13.2844L9.45433 13.2961L9.4661 13.3073C9.73623 13.5632 10.1089 13.7255 10.5 13.7255C10.6015 13.7255 10.6936 13.7118 10.7434 13.7044C10.7496 13.7034 10.7551 13.7026 10.7599 13.7019L10.7599 13.7021L10.7736 13.6998C10.8764 13.6827 10.9731 13.6515 11.0631 13.6102C11.1569 13.575 11.2434 13.5289 11.3228 13.476L11.3445 13.4615L11.3648 13.4452L11.4961 13.3402ZM14.5964 16.3698L14.6082 16.3586L14.6193 16.3469C14.8752 16.0767 15.0375 15.7041 15.0375 15.313C15.0375 14.9218 14.8752 14.5492 14.6193 14.2791L14.6137 14.2732L14.608 14.2675C14.3164 13.9758 13.9252 13.8489 13.5625 13.8489C13.1998 13.8489 12.8086 13.9758 12.517 14.2675L12.5113 14.2732L12.5057 14.2791C12.2498 14.5492 12.0875 14.9218 12.0875 15.313C12.0875 15.7041 12.2498 16.0767 12.5057 16.3469L12.5168 16.3586L12.5286 16.3698C12.7987 16.6257 13.1714 16.788 13.5625 16.788C13.9536 16.788 14.3263 16.6257 14.5964 16.3698ZM14.5586 13.3402L14.5909 13.3144L14.6193 13.2844C14.8752 13.0142 15.0375 12.6416 15.0375 12.2505C15.0375 11.8593 14.8752 11.4867 14.6193 11.2166L14.5909 11.1865L14.5586 11.1607L14.4929 11.1082L14.4273 11.0557L14.407 11.0394L14.3853 11.025C14.3059 10.9721 14.2194 10.9259 14.1256 10.8907C14.0386 10.8508 13.9453 10.8203 13.8464 10.8029C13.5641 10.7482 13.2709 10.7743 13.0004 10.891C12.8063 10.968 12.6613 11.074 12.5399 11.1832L12.5221 11.1992L12.5057 11.2166C12.2498 11.4867 12.0875 11.8593 12.0875 12.2505C12.0875 12.6416 12.2498 13.0142 12.5057 13.2844L12.5168 13.2961L12.5286 13.3073C12.7987 13.5632 13.1714 13.7255 13.5625 13.7255C13.6594 13.7255 13.759 13.7111 13.8118 13.7035C13.8155 13.7029 13.8191 13.7024 13.8224 13.7019L13.8224 13.7021L13.8361 13.6998C13.9389 13.6827 14.0356 13.6515 14.1256 13.6102C14.2194 13.575 14.3059 13.5289 14.3853 13.476L14.407 13.4615L14.4273 13.4452L14.5586 13.3402ZM3.5 9.21047L17.5 9.21047C17.6499 9.21047 17.775 9.33559 17.775 9.48547V14.8755C17.775 16.096 17.4698 17.0214 16.8963 17.6391C16.3302 18.2487 15.4169 18.6505 14 18.6505H7C5.58311 18.6505 4.66978 18.2487 4.10374 17.6391C3.53022 17.0214 3.225 16.096 3.225 14.8755L3.225 9.48547C3.225 9.33559 3.35012 9.21047 3.5 9.21047Z" fill="#3354F4" stroke="#3354F4" stroke-width="1.2"/>
</svg>
